#!OML:ASF F:\VICON\USERDATA\INSTALL\rory3\rory3.ASF
:FULLY-SPECIFIED
:DEGREES
1
root 0.4845304515702227 17.567197160357036 -13.77639154526996 6.018164814178432 -0.8524892850993873 -1.4866648800280682
lfemur -9.940048252514682 8.39342686492507 -18.560802469496323
ltibia 16.725207979982407
lfoot -11.525700883206387 1.4665463508769627
ltoes -8.517114944818193
rfemur -10.843807609463628 -3.5109832586358003 19.996007518929666
rtibia 19.42280796458576
rfoot -13.891001072357154 -1.9360942054604355
rtoes 8.026142947460222
lowerback -0.9873256944813287 -0.44017267481728095 0.4861868374313405
upperback 4.52818633739761 -0.6821259865993929 1.643102981244156
thorax 5.246689400035055 -0.3578949469459888 1.3908066299661392
lowerneck -15.680698883441222 0.6170109261317185 -2.6989435713537304
upperneck 25.293691578503697 1.5516368820727557 0.23453121745447333
head 10.705190979890634 0.4744231020512375 0.7537110574579851
lclavicle 5.751011870467717e-16 -3.1237622586190824e-16
lhumerus -17.738901714232195 -6.584313248851194 90.91409288254872
lradius 20.012495719844562
lwrist 4.019862759619222
lhand -24.979506705570316 -3.936040345416181
lfingers 7.125019999999998
lthumb 1.5314032294581073 26.038189546632243
rclavicle 5.751011870467717e-16 -3.1237622586190824e-16
rhumerus -18.179804308917916 -10.975507614683757 -84.70169140423044
rradius 24.52689777997343
rwrist 31.765605661594144
rhand -19.40730662620341 -26.34440044217671
rfingers 7.125019999999998
rthumb 6.911983384672561 -56.21150061005001
2
root 0.47670171877298206 17.56429717354699 -13.781891497843965 5.9852748279242975 -0.7318431472009319 -1.520684370786269
lfemur -9.963458136427914 8.312507410845756 -18.482403017403048
ltibia 16.78320836612199
lfoot -11.597100780438268 1.4674563587395766
ltoes -8.450065383750495
rfemur -10.836707814608538 -3.581912885191028 20.060407058094107
rtibia 19.478207364555878
rfoot -13.924501014461251 -1.9518442257356199
rtoes 8.058122947660003
lowerback -0.9411706269001243 -0.456970351220625 0.49496272132883223
upperback 4.502666492389538 -0.7033916442729331 1.6375831057187964
thorax 5.193759530738928 -0.36780067828812146 1.3792367549897524
lowerneck -15.705298770745541 0.6469263634804575 -2.5693458175293036
upperneck 25.239291809271162 1.5842264937427597 0.14073788982710178
head 10.691390961734845 0.4910165914307294 0.7023652019319684
lclavicle 5.751011819402085e-16 -3.123761967840189e-16
lhumerus -17.53290195939253 -6.287003673114832 91.20389220471216
lradius 19.469497339566416
lwrist 3.7270931633317326
lhand -24.912307236608754 -4.087609692355292
lfingers 7.125019999999998
lthumb 1.5962427100145313 25.88619027719912
rclavicle 5.751011819402085e-16 -3.123761967840189e-16
rhumerus -18.215904199539395 -10.844507688306138 -84.81659109381086
rradius 24.563997669235356
rwrist 31.698705840750556
rhand -19.34610711433272 -26.362700306924015
rfingers 7.125019999999998
rthumb 6.971102883123784 -56.22790048687639
3
root 0.47042492357146604 17.562797194480257 -13.787191277645741 5.957204908104104 -0.6769635422504305 -1.5544138769066285
lfemur -9.976557147027592 8.241467889784941 -18.41870349336374
ltibia 16.826707693437335
lfoot -11.623700744436324 1.532996414307752
ltoes -8.50893500988574
rfemur -10.844306728323819 -3.7100621259616346 20.118606628706267
rtibia 19.522207634592057
rfoot -13.943501020096672 -1.8746244327723067
rtoes 7.985403171858973
lowerback -0.9159588021479834 -0.4418346472210224 0.4669640910703473
upperback 4.487146543067853 -0.6810329806771269 1.6291832916315705
thorax 5.162769506318097 -0.3575839616687613 1.387586637651256
lowerneck -15.789398417928789 0.6776837849532602 -2.378779235360682
upperneck 25.337091645970027 1.6141661343930578 0.014094981782529891
head 10.746490861597733 0.5059991305205076 0.6300328009365388
lclavicle 5.751011823657525e-16 -3.123762114306465e-16
lhumerus -17.591401896897807 -6.5475935611360745 91.56649146823855
lradius 19.517797252020188
lwrist 3.9009829289229128
lhand -24.866407608100786 -4.169249440225834
lfingers 7.125019999999998
lthumb 1.6406123556740722 25.804190585647238
rclavicle 5.751011823657525e-16 -3.123762114306465e-16
rhumerus -18.25850410931881 -10.71250815321406 -84.88389101710517
rradius 24.592897574770898
rwrist 31.69190596299753
rhand -19.33930708462351 -26.3402004742713
rfingers 7.125019999999998
rthumb 6.977592874689878 -56.20520065215134
4
root 0.4651221101390963 17.562397186421947 -13.788791288777205 5.952344819139178 -0.6742395716742551 -1.581353463744919
lfemur -9.97569756320025 8.213578059043266 -18.370103834266594
ltibia 16.839407346617506
lfoot -11.641100741907849 1.5983862511150808
ltoes -8.495305248284202
rfemur -10.853007805878313 -3.803351565498885 20.167106244721207
rtibia 19.529107792331537
rfoot -13.934301051962283 -1.789444679337976
rtoes 7.98814331317973
lowerback -0.9559278248664764 -0.40626635351728735 0.3878551383427755
upperback 4.4542566696715795 -0.6305987303255608 1.6298132857499732
thorax 5.150849669338792 -0.33574359477437066 1.4350559886685472
lowerneck -15.896297965359942 0.6754558269669736 -2.310790416865704
upperneck 25.56069142420929 1.583386487712269 0.06966819012259902
head 10.850490494687746 0.502227246128203 0.6365196560252062
lclavicle 5.751011836778565e-16 -3.123762116460336e-16
lhumerus -17.6933017780021 -6.959422668263569 91.93839053147123
lradius 19.640496839031304
lwrist 4.113622576424304
lhand -24.88130748833093 -4.255129024661651
lfingers 7.125019999999998
lthumb 1.6262424782819564 25.718390966619403
rclavicle 5.751011836778565e-16 -3.123762116460336e-16
rhumerus -18.31190408777015 -10.733708020762663 -84.87159095249224
rradius 24.539297759862702
rwrist 31.795105655270326
rhand -19.35260703779898 -26.36830026330774
rfingers 7.125019999999998
rthumb 6.964792979989428 -56.23370044540113
5
root 0.46215919847728115 17.562797194480257 -13.787991283211474 5.957374709577477 -0.7157352583660649 -1.625932793930247
lfemur -9.968607374162858 8.241927878589866 -18.310404294838772
ltibia 16.83680788234765
lfoot -11.65380068683615 1.629786169861866
ltoes -8.456655324133015
rfemur -10.853207453422389 -3.883521052358147 20.22540580596487
rtibia 19.504407407142786
rfoot -13.909901066431468 -1.6602249415840558
rtoes 8.015833144048809
lowerback -1.0300630836200044 -0.3597932591454831 0.3537065514295195
upperback 4.402636913440007 -0.5673516815366706 1.6296132844179958
thorax 5.137899486719966 -0.3055604855810372 1.4570056735537555
lowerneck -15.960097695290807 0.6603701108236437 -2.2640012664387483
upperneck 25.822891215737087 1.5318771101166346 0.15045382207613825
head 10.960890249396986 0.4899516239039743 0.6528522940028723
lclavicle 5.751011789259215e-16 -3.1237621940014824e-16
lhumerus -17.829701516858055 -7.736961906402335 92.2833895044313
lradius 19.85129625562814
lwrist 4.486462082757118
lhand -24.767508429463582 -4.171399377483026
lfingers 7.125019999999998
lthumb 1.7360715728911817 25.801290648609957
rclavicle 5.751011789259215e-16 -3.1237621940014824e-16
rhumerus -18.355303970961533 -10.981007469859692 -84.81489109311485
rradius 24.373098267378754
rwrist 32.12050506510551
rhand -19.38020682260022 -26.38840011165329
rfingers 7.125019999999998
rthumb 6.938093127454422 -56.25470028829239
6
root 0.46330016946001806 17.563297173861987 -13.785791439286509 5.96284484785662 -0.8007636435902656 -1.655172372240145
lfemur -9.946807832387709 8.23072794002876 -18.282704468108275
ltibia 16.835107837847374
lfoot -11.642600732651465 1.724065982807104
ltoes -8.385675279914107
rfemur -10.843307123154506 -3.9216708863035974 20.247505619181066
rtibia 19.470507224422338
rfoot -13.902301089953475 -1.5323853311154276
rtoes 8.115932814531531
lowerback -1.1330628402622098 -0.3264329177013465 0.3568095443695682
upperback 4.362237114438079 -0.523356342478152 1.6231234326645239
thorax 5.153199498776718 -0.2833341240961549 1.4504857978204277
lowerneck -16.026397408217196 0.6524662596891764 -2.234061787308632
upperneck 26.02129070954291 1.5166073070753694 0.1510908114138693
head 11.048690013992536 0.4834118254162912 0.6476914038607728
lclavicle 5.751011828267614e-16 -3.1237622370799547e-16
lhumerus -17.941501364802214 -8.452280797266827 92.51048900774832
lradius 20.149895359728372
lwrist 4.8738615206590605
lhand -24.791408256120135 -4.285358927722571
lfingers 7.125019999999998
lthumb 1.7130217729625712 25.68749105373663
rclavicle 5.751011828267614e-16 -3.1237622370799547e-16
rhumerus -18.336104095941863 -11.195507174378289 -84.77589134524402
rradius 24.181598908883192
rwrist 32.405904616157805
rhand -19.376806849718516 -26.41459991491461
rfingers 7.125019999999998
rthumb 6.941413173592011 -56.280800095364626
7
root 0.4670480464524214 17.56299717804864 -13.782691503409698 5.934934723877054 -0.9110078543409597 -1.6657022084347841
lfemur -9.88372760382735 8.267247713394026 -18.27760450312187
ltibia 16.83210806121217
lfoot -11.658100695249708 1.7782457820659854
ltoes -8.317285427208802
rfemur -10.819707689485565 -3.8829911073765424 20.240405656459675
rtibia 19.4756080409566
rfoot -13.90360104692655 -1.4846654883327717
rtoes 8.029703222275717
lowerback -1.2054828135559843 -0.29654049021032336 0.393865021934231
upperback 4.3225873373580095 -0.48436092029666145 1.6039938595138175
thorax 5.151499325023149 -0.2618757511591246 1.4117163183966315
lowerneck -16.07999714729505 0.6574101661359303 -2.2261619106830044
upperneck 26.18049081687485 1.5354370732384042 0.11493707018902573
head 11.119589677114416 0.4860687430924672 0.6373196365365381
lclavicle 5.751011797415517e-16 -3.1237620173798453e-16
lhumerus -18.052801174385674 -8.859110310119368 92.58218868769164
lradius 20.442594548360056
lwrist 5.270580874796266
lhand -24.784308258909082 -4.138529540698315
lfingers 7.125019999999998
lthumb 1.7199017283846247 25.83429049095197
rclavicle 5.751011797415517e-16 -3.1237620173798453e-16
rhumerus -18.36380400917146 -11.286007224390097 -84.77159120943519
rradius 24.096499191912567
rwrist 32.5327044032767
rhand -19.41850659119043 -26.338600488850638
rfingers 7.125019999999998
rthumb 6.901173459038027 -56.20610064901189
